<svg width="22" height="22" viewBox="0 0 22 22" fill="none" xmlns="http://www.w3.org/2000/svg">
<path d="M3.00677 12.4188C3.10976 10.7709 3.18419 9.60217 3.35677 8.71781C3.52556 7.85288 3.77203 7.35532 4.15518 6.99537C4.53833 6.63542 5.05029 6.42046 5.92407 6.30596C6.81747 6.18888 7.98859 6.1875 9.63965 6.1875H12.361C14.0121 6.1875 15.1832 6.18888 16.0767 6.30596C16.9504 6.42046 17.4624 6.63542 17.8456 6.99537C18.2286 7.35532 18.4751 7.85288 18.644 8.71781C18.8165 9.60217 18.8909 10.7709 18.994 12.4188C19.1093 14.265 19.1899 15.5788 19.1155 16.5783C19.0426 17.5579 18.8268 18.1232 18.4353 18.5399C18.0439 18.9565 17.4932 19.2072 16.5201 19.341C15.5272 19.4776 14.2109 19.4792 12.361 19.4792H9.63965C7.78985 19.4792 6.47351 19.4776 5.48064 19.341C4.50748 19.2072 3.95676 18.9565 3.56538 18.5399C3.17399 18.1232 2.95806 17.5579 2.88516 16.5783C2.81079 15.5788 2.89138 14.265 3.00677 12.4188Z" stroke="black" stroke-width="1.375"/>
<path fill-rule="evenodd" clip-rule="evenodd" d="M7.19761 8.24967C7.69075 8.24967 8.00476 7.66952 7.88611 7.19086C7.82462 6.94282 7.79199 6.68339 7.79199 6.41634C7.79199 4.64442 9.22841 3.20801 11.0003 3.20801C12.7722 3.20801 14.2087 4.64442 14.2087 6.41634C14.2087 6.68339 14.176 6.94282 14.1145 7.19086C13.9959 7.66952 14.31 8.24967 14.803 8.24967C15.0456 8.24967 15.2686 8.10717 15.3459 7.8773C15.5001 7.41844 15.5837 6.92715 15.5837 6.41634C15.5837 3.88504 13.5316 1.83301 11.0003 1.83301C8.46902 1.83301 6.41699 3.88504 6.41699 6.41634C6.41699 6.92715 6.50056 7.41844 6.65476 7.8773C6.732 8.10717 6.9551 8.24967 7.19761 8.24967Z" fill="black"/>
<path d="M7.79134 11.9167C8.04447 11.9167 8.24967 11.7115 8.24967 11.4583C8.24967 11.2052 8.04447 11 7.79134 11C7.53821 11 7.33301 11.2052 7.33301 11.4583C7.33301 11.7115 7.53821 11.9167 7.79134 11.9167Z" stroke="black" stroke-width="0.916667"/>
<path d="M14.2083 11.9167C14.4615 11.9167 14.6667 11.7115 14.6667 11.4583C14.6667 11.2052 14.4615 11 14.2083 11C13.9552 11 13.75 11.2052 13.75 11.4583C13.75 11.7115 13.9552 11.9167 14.2083 11.9167Z" stroke="black" stroke-width="0.916667"/>
</svg>
