<svg width="24" height="24" viewBox="0 0 24 24" fill="none" xmlns="http://www.w3.org/2000/svg">
<g clip-path="url(#clip0_4948_20605)">
<path d="M13.1806 3.21191C12.8571 3.21191 12.5947 3.47422 12.5947 3.79781V6.14133C12.5947 6.46488 12.857 6.72723 13.1806 6.72723C13.5042 6.72723 13.7665 6.46492 13.7665 6.14133V3.79777C13.7665 3.47422 13.5042 3.21191 13.1806 3.21191Z" fill="black"/>
<path d="M18.2821 4.55538C18.0534 4.32659 17.6824 4.32659 17.4536 4.55538L15.1101 6.8989C14.8813 7.12769 14.8813 7.49866 15.1101 7.72745C15.3388 7.95624 15.7098 7.95628 15.9386 7.72745L18.2821 5.38394C18.511 5.15511 18.511 4.78417 18.2821 4.55538Z" fill="black"/>
<path d="M11.2509 6.8989L8.90737 4.55538C8.67862 4.32659 8.30761 4.32659 8.07882 4.55538C7.85003 4.78417 7.85003 5.15515 8.07882 5.38394L10.4223 7.72745C10.6511 7.95624 11.0221 7.95624 11.2509 7.72745C11.4797 7.49862 11.4797 7.12769 11.2509 6.8989Z" fill="black"/>
<path d="M21.4141 9.07031H10.2824C7.90078 9.07031 5.84676 10.4988 4.93152 12.5439H3.75766C2.78848 12.5439 2 13.3324 2 14.3016C2 15.2707 2.78848 16.0592 3.75766 16.0592H4.5334C5.06156 18.7508 7.4384 20.7879 10.2824 20.7879C13.513 20.7879 16.1412 18.1597 16.1412 14.9291C16.1412 14.5329 16.1019 14.141 16.0239 13.7574H21.4141C21.7377 13.7574 22 13.4951 22 13.1715V9.65621C22 9.33266 21.7377 9.07031 21.4141 9.07031ZM4.42414 14.8875H3.75766C3.43461 14.8875 3.17176 14.6246 3.17176 14.3016C3.17176 13.9785 3.43457 13.7157 3.75766 13.7157H4.55031C4.47027 14.0942 4.42695 14.4861 4.42414 14.8875ZM15.2552 12.5856C14.8511 12.5856 14.5683 12.9862 14.7028 13.3668C14.8797 13.8672 14.9694 14.3928 14.9694 14.9291C14.9694 17.5136 12.8668 19.6162 10.2823 19.6162C7.69793 19.6162 5.59531 17.5136 5.59531 14.9291C5.59531 12.3447 7.69793 10.2421 10.2823 10.2421H20.8282V12.5856H15.2552Z" fill="black"/>
<path d="M10.2507 12.5859C8.95852 12.5859 7.90723 13.6372 7.90723 14.9295C7.90723 16.2217 8.95852 17.273 10.2507 17.273C11.543 17.273 12.5943 16.2217 12.5943 14.9295C12.5943 13.6372 11.543 12.5859 10.2507 12.5859ZM10.2507 16.1012C9.60465 16.1012 9.07898 15.5755 9.07898 14.9295C9.07898 14.2834 9.60465 13.7577 10.2507 13.7577C10.8968 13.7577 11.4225 14.2834 11.4225 14.9295C11.4225 15.5755 10.8969 16.1012 10.2507 16.1012Z" fill="black"/>
</g>
<defs>
<clipPath id="clip0_4948_20605">
<rect width="20" height="20" fill="white" transform="translate(2 2)"/>
</clipPath>
</defs>
</svg>
