<svg width="24" height="24" viewBox="0 0 24 24" fill="none" xmlns="http://www.w3.org/2000/svg">
<path d="M13.7549 11.7989C13.7549 10.9702 13.1753 10.2778 12.4014 10.0957V13.5021C13.1753 13.32 13.7549 12.6275 13.7549 11.7989Z" fill="black"/>
<path d="M18.249 11.7989C18.249 12.6275 18.8286 13.32 19.6025 13.5021V10.0957C18.8286 10.2778 18.249 10.9702 18.249 11.7989Z" fill="black"/>
<path d="M5.75489 11.7989C5.75489 10.9702 5.17531 10.2778 4.40137 10.0957V13.5021C5.17531 13.32 5.75489 12.6275 5.75489 11.7989Z" fill="black"/>
<path d="M10.248 11.7989C10.248 12.6275 10.8277 13.32 11.6016 13.5021V10.0957C10.8277 10.2778 10.248 10.9702 10.248 11.7989Z" fill="black"/>
<path d="M22 18.2V5.40001C22 5.18 21.824 5 21.6 5H2.40001C2.18 5 2 5.18 2 5.40001V18.2C2 18.42 2.18 18.6 2.40001 18.6H21.6C21.824 18.6 22 18.42 22 18.2ZM20.402 16.5992C20.402 16.8203 20.2231 16.9992 20.002 16.9992H4.00197C3.78088 16.9992 3.60199 16.8203 3.60199 16.5992V6.99921C3.60199 6.77812 3.78088 6.59924 4.00197 6.59924H20.002C20.2231 6.59924 20.402 6.77812 20.402 6.99921V16.5992Z" fill="black"/>
<path d="M12.4014 9.28041C13.6197 9.47335 14.5549 10.5276 14.5549 11.7994C14.5549 13.0712 13.6197 14.1255 12.4014 14.3184V16.1994H19.6014V14.3184C18.383 14.1255 17.4478 13.0712 17.4478 11.7994C17.4478 10.5276 18.383 9.47335 19.6014 9.28041V7.39941H12.4014V9.28041Z" fill="black"/>
<path d="M4.40137 9.28041C5.61971 9.47335 6.55487 10.5276 6.55487 11.7994C6.55487 13.0712 5.61971 14.1255 4.40137 14.3184V16.1994H11.6014V14.3184C10.383 14.1255 9.44785 13.0712 9.44785 11.7994C9.44785 10.5276 10.383 9.47335 11.6014 9.28041V7.39941H4.40137V9.28041Z" fill="black"/>
</svg>
