<svg width="32" height="32" viewBox="0 0 32 32" fill="none" xmlns="http://www.w3.org/2000/svg">
<circle cx="16" cy="16" r="16" fill="white"/>
<path fill-rule="evenodd" clip-rule="evenodd" d="M20.521 23.0051V17.1401C20.521 15.9361 19.683 14.7341 18.309 14.7341C16.937 14.7341 16.33 15.9361 16.33 17.1701V23.0051H12.851V12.2371H16.309V13.7111C17.272 12.4471 18.165 11.8761 19.683 11.8761C21.203 11.8761 24.001 12.6581 24.001 16.8981V23.0051H20.521ZM9.046 10.7851C7.915 10.7851 7 9.93714 7 8.89014C7 7.84414 7.915 6.99414 9.046 6.99414C10.176 6.99414 11.092 7.84414 11.092 8.89014C11.092 9.93714 10.176 10.7851 9.046 10.7851ZM10.771 23.0051H7.292V12.2371H10.771V23.0051Z" fill="#212121"/>
</svg>
