<svg width="32" height="32" viewBox="0 0 32 32" fill="none" xmlns="http://www.w3.org/2000/svg">
<circle cx="16" cy="16" r="16" fill="white"/>
<path fill-rule="evenodd" clip-rule="evenodd" d="M25.942 19.417C25.897 20.428 25.736 21.118 25.501 21.723C25.2623 22.3567 24.8883 22.9307 24.405 23.405C23.9308 23.8884 23.3568 24.2624 22.723 24.501C22.118 24.736 21.426 24.896 20.416 24.943C19.403 24.989 19.081 25 16.5 25C13.919 25 13.596 24.989 12.583 24.943C11.572 24.896 10.881 24.736 10.276 24.501C9.64236 24.2622 9.06838 23.8882 8.594 23.405C8.11066 22.9309 7.73692 22.3568 7.499 21.723C7.264 21.118 7.103 20.428 7.056 19.417C7.011 18.404 7 18.08 7 15.5C7 12.919 7.011 12.596 7.056 11.583C7.103 10.572 7.264 9.882 7.499 9.277C7.73692 8.64316 8.11066 8.06907 8.594 7.595C9.06811 7.11148 9.64217 6.73742 10.276 6.499C10.881 6.264 11.572 6.104 12.583 6.057C13.596 6.011 13.919 6 16.5 6C19.081 6 19.403 6.011 20.416 6.057C21.426 6.104 22.118 6.264 22.723 6.499C23.3569 6.73718 23.9311 7.11127 24.405 7.595C24.8883 8.0693 25.2623 8.64331 25.501 9.277C25.736 9.882 25.897 10.572 25.942 11.583C25.988 12.596 26 12.919 26 15.5C26 18.08 25.988 18.404 25.942 19.417ZM24.233 11.661C24.19 10.735 24.035 10.232 23.905 9.897C23.7535 9.48397 23.5104 9.11062 23.194 8.805C22.888 8.48898 22.5148 8.24597 22.102 8.094C21.768 7.964 21.264 7.809 20.339 7.767C19.337 7.721 19.035 7.712 16.5 7.712C13.963 7.712 13.662 7.721 12.66 7.767C11.734 7.809 11.232 7.964 10.897 8.094C10.4842 8.24597 10.111 8.48898 9.805 8.805C9.48891 9.11111 9.2456 9.48429 9.093 9.897C8.964 10.232 8.809 10.735 8.767 11.661C8.721 12.663 8.712 12.963 8.712 15.5C8.712 18.037 8.721 18.337 8.767 19.339C8.809 20.265 8.964 20.768 9.093 21.103C9.267 21.546 9.471 21.863 9.805 22.195C10.136 22.528 10.453 22.733 10.897 22.905C11.232 23.036 11.734 23.19 12.66 23.233C13.662 23.279 13.963 23.288 16.5 23.288C19.035 23.288 19.338 23.279 20.339 23.233C21.264 23.19 21.768 23.036 22.102 22.905C22.5149 22.7538 22.8882 22.511 23.194 22.195C23.5102 21.8892 23.7533 21.5159 23.905 21.103C24.035 20.768 24.19 20.265 24.233 19.339C24.278 18.337 24.289 18.037 24.289 15.5C24.289 12.963 24.278 12.663 24.233 11.661ZM21.57 11.569C21.4203 11.5689 21.2721 11.5393 21.1338 11.4818C20.9956 11.4244 20.87 11.3403 20.7642 11.2344C20.6584 11.1284 20.5746 11.0027 20.5174 10.8643C20.4602 10.726 20.4309 10.5777 20.431 10.428C20.4311 10.2783 20.4607 10.1301 20.5182 9.99182C20.5756 9.85356 20.6597 9.72796 20.7656 9.62219C20.8716 9.51642 20.9973 9.43256 21.1357 9.37539C21.274 9.31823 21.4223 9.28887 21.572 9.289C21.8743 9.28926 22.1642 9.40963 22.3778 9.62361C22.5914 9.83758 22.7113 10.1277 22.711 10.43C22.7107 10.7323 22.5904 11.0222 22.3764 11.2358C22.1624 11.4494 21.8723 11.5693 21.57 11.569ZM16.5 20.379C15.851 20.3921 15.2058 20.2757 14.6024 20.0364C13.9989 19.7971 13.4493 19.4398 12.9856 18.9854C12.522 18.5311 12.1536 17.9888 11.9022 17.3903C11.6507 16.7918 11.5212 16.1492 11.5212 15.5C11.5212 14.8508 11.6507 14.2082 11.9022 13.6097C12.1536 13.0112 12.522 12.4689 12.9856 12.0146C13.4493 11.5602 13.9989 11.2029 14.6024 10.9636C15.2058 10.7243 15.851 10.6079 16.5 10.621C17.7769 10.6469 18.9928 11.1723 19.8866 12.0844C20.7805 12.9966 21.2812 14.2229 21.2812 15.5C21.2812 16.7771 20.7805 18.0034 19.8866 18.9156C18.9928 19.8278 17.7769 20.3531 16.5 20.379ZM16.5 12.333C16.0841 12.333 15.6723 12.4149 15.288 12.5741C14.9038 12.7332 14.5547 12.9665 14.2606 13.2606C13.9665 13.5547 13.7332 13.9038 13.5741 14.288C13.4149 14.6723 13.333 15.0841 13.333 15.5C13.333 15.9159 13.4149 16.3277 13.5741 16.712C13.7332 17.0962 13.9665 17.4453 14.2606 17.7394C14.5547 18.0335 14.9038 18.2668 15.288 18.4259C15.6723 18.5851 16.0841 18.667 16.5 18.667C17.3399 18.667 18.1455 18.3333 18.7394 17.7394C19.3333 17.1455 19.667 16.3399 19.667 15.5C19.667 14.6601 19.3333 13.8545 18.7394 13.2606C18.1455 12.6667 17.3399 12.333 16.5 12.333Z" fill="#212121"/>
</svg>
