<svg width="24" height="30" viewBox="0 0 24 30" fill="none" xmlns="http://www.w3.org/2000/svg">
<path d="M12 0.969238C5.85229 0.969238 0.867676 5.95385 0.867676 12.1015C0.867676 13.6892 1.19998 15.1846 1.79075 16.5508C1.80921 16.6062 1.84614 16.6615 1.8646 16.7169C1.91998 16.8462 1.99383 16.9939 2.06768 17.1231C2.1046 17.1785 2.12306 17.2339 2.15998 17.3077C2.23383 17.4554 2.32614 17.6215 2.41844 17.7692C2.43691 17.7877 2.43691 17.8062 2.45537 17.8431C2.91691 18.6185 3.48921 19.3385 4.11691 19.9662L10.7077 28.4215C11.3538 29.2523 12.6092 29.2523 13.2554 28.4215L19.8461 19.9846C20.4923 19.3385 21.0461 18.6185 21.5261 17.8431C22.5415 16.1631 23.1138 14.2062 23.1138 12.12C23.1323 5.95385 18.1477 0.969238 12 0.969238V0.969238ZM12 21.4431C6.9046 21.4431 2.76921 17.3077 2.76921 12.2123C2.76921 7.11693 6.9046 2.98155 12 2.98155C17.0954 2.98155 21.2308 7.11693 21.2308 12.2123C21.2308 17.3077 17.0954 21.4431 12 21.4431Z" fill="black"/>
<path d="M16.1723 6.67387C16.5046 7.09849 16.5415 7.59695 16.523 8.11387V11.6031C16.523 11.6954 16.523 11.8062 16.5046 11.88C15.7107 11.88 14.9169 11.88 14.123 11.88C13.643 10.5508 12.9969 10.0154 11.9077 10.0339C10.9107 10.0523 10.2277 10.6616 9.82151 11.8985C9.02766 11.8985 8.25228 11.88 7.42151 11.88C7.42151 10.9754 7.43997 10.0523 7.43997 9.11079C7.43997 8.61233 7.43997 8.11387 7.45843 7.61541C7.47689 6.89541 7.95689 6.3231 8.67689 6.23079C9.04612 6.17541 9.41535 6.19387 9.82151 6.19387C9.80305 6.84003 9.78459 7.44926 9.76612 8.05849C11.2615 8.05849 12.683 8.05849 14.123 8.04003C14.1046 7.46772 14.1046 6.85849 14.0861 6.21233C14.8061 6.19387 15.4707 6.13849 16.0615 6.5631C16.1169 6.61849 16.1538 6.65541 16.1723 6.67387Z" fill="black"/>
<path d="M16.0431 17.8249C15.4707 18.2125 14.8246 18.1756 14.1231 18.1387C14.1415 17.511 14.16 16.9018 14.1784 16.2925C12.72 16.2925 11.3169 16.2925 9.85844 16.311C9.8769 16.9018 9.89536 17.511 9.91382 18.231C9.32305 18.1572 8.82459 18.1572 8.36305 18.0279C7.88305 17.8802 7.53228 17.4925 7.51382 16.9756C7.4769 15.4618 7.4769 13.9664 7.45844 12.471C8.2892 12.471 9.06459 12.471 9.85844 12.4895C10.32 13.7818 10.9477 14.3356 12 14.3356C13.0338 14.3356 13.68 13.7818 14.16 12.4525C14.1969 12.4525 14.2523 12.4341 14.3077 12.4341H16.5415C16.5415 12.9879 16.56 13.5233 16.56 14.0402C16.56 14.7972 16.5415 15.5356 16.5415 16.2925C16.5415 16.7725 16.5046 17.2341 16.2277 17.6587C16.1538 17.7141 16.0984 17.7695 16.0431 17.8249Z" fill="black"/>
<path d="M10.3753 18.1017C10.3753 17.6586 10.3753 17.1971 10.3569 16.7725C11.4461 16.7725 12.5353 16.7909 13.6061 16.7909V18.1202C12.5538 18.1202 11.4646 18.1017 10.3753 18.1017Z" fill="black"/>
<path d="M13.6431 6.28619C13.6431 6.71081 13.6246 7.17234 13.6246 7.61542C12.5723 7.61542 11.4831 7.61542 10.3938 7.59696C10.3938 7.17235 10.3754 6.71081 10.3754 6.24927C11.4646 6.26773 12.5538 6.26773 13.6431 6.28619Z" fill="black"/>
<path d="M13.6246 12.4521C13.4769 13.2829 12.7569 13.8737 11.9631 13.8368C11.1692 13.7998 10.4861 13.1906 10.4123 12.5075C11.4646 12.5075 12.5354 12.4706 13.6246 12.4521Z" fill="black"/>
<path d="M13.6061 11.8429C12.5538 11.8429 11.4831 11.8244 10.4123 11.8244C10.4492 11.1783 11.1877 10.5321 11.9631 10.5137C12.7754 10.5137 13.5138 11.1229 13.6061 11.8429Z" fill="black"/>
</svg>
