<svg width="32" height="32" viewBox="0 0 32 32" fill="none" xmlns="http://www.w3.org/2000/svg">
<path d="M25.3218 14.2137C20.2421 11.197 11.8632 10.9196 7.01393 12.3914C6.23519 12.6277 5.41168 12.188 5.17579 11.4095C4.93976 10.6302 5.37889 9.8073 6.15822 9.57057C11.7248 7.8809 20.9784 8.2072 26.8263 11.6786C27.5267 12.0944 27.7565 12.999 27.3414 13.6983C26.9259 14.3986 26.0205 14.6295 25.3218 14.2137V14.2137ZM25.1555 18.6819C24.7991 19.2602 24.043 19.4416 23.4654 19.0865C19.2304 16.4832 12.7727 15.7291 7.76246 17.25C7.11273 17.4463 6.42645 17.08 6.22909 16.4315C6.03333 15.7818 6.39985 15.0968 7.04841 14.8992C12.7719 13.1624 19.8872 14.0036 24.7513 16.9927C25.3288 17.3484 25.5106 18.1049 25.1555 18.6819ZM23.2272 22.973C22.944 23.4374 22.3394 23.5829 21.8766 23.2998C18.176 21.0381 13.5182 20.5273 8.03274 21.7802C7.50414 21.9014 6.97731 21.5702 6.85677 21.0416C6.73569 20.5132 7.06568 19.9863 7.59545 19.8657C13.5983 18.4934 18.7476 19.084 22.9013 21.6222C23.3644 21.905 23.5102 22.51 23.2272 22.973ZM16 0.243237C7.29679 0.243237 0.241211 7.29867 0.241211 16.0018C0.241211 24.7059 7.29679 31.7607 16 31.7607C24.7035 31.7607 31.7587 24.7059 31.7587 16.0018C31.7587 7.29867 24.7035 0.243237 16 0.243237Z" fill="white"/>
</svg>
