<svg width="32" height="32" viewBox="0 0 32 32" fill="none" xmlns="http://www.w3.org/2000/svg">
<circle cx="16" cy="16" r="16" fill="white"/>
<path d="M26.9517 10.4985C26.6896 9.51497 25.9175 8.74052 24.937 8.47768C23.16 8 16.034 8 16.034 8C16.034 8 8.90799 8 7.13087 8.47768C6.15044 8.74052 5.37823 9.51497 5.11619 10.4985C4.64001 12.2809 4.64001 16 4.64001 16C4.64001 16 4.64001 19.719 5.11619 21.5017C5.37823 22.485 6.15044 23.2595 7.13087 23.5224C8.90799 24 16.034 24 16.034 24C16.034 24 23.16 24 24.937 23.5224C25.9175 23.2595 26.6896 22.485 26.9517 21.5017C27.4279 19.719 27.4279 16 27.4279 16C27.4279 16 27.4279 12.2809 26.9517 10.4985Z" fill="#252323"/>
<path d="M13.7034 19.377L19.6593 16.0005L13.7034 12.6237V19.377Z" fill="white"/>
</svg>
